HIERARCHY
ROOT Hips
{
	OFFSET 0.000000 0.000000 0.000000
	CHANNELS 6 Xposition Yposition Zposition Zrotation Yrotation Xrotation 
	JOINT LHipJoint
	{
		OFFSET 0.000000 0.000000 0.000000
		CHANNELS 3 Zrotation Yrotation Xrotation
		JOINT LeftUpLeg
		{
			OFFSET 1.363060 -1.794630 0.839290
			CHANNELS 3 Zrotation Yrotation Xrotation
			JOINT LeftLeg
			{
				OFFSET 2.448110 -6.726130 0.000000
				CHANNELS 3 Zrotation Yrotation Xrotation
				JOINT LeftFoot
				{
					OFFSET 2.562200 -7.039590 0.000000
					CHANNELS 3 Zrotation Yrotation Xrotation
					JOINT LeftToeBase
					{
						OFFSET 0.157640 -0.433110 2.322550
						CHANNELS 3 Zrotation Yrotation Xrotation
						End Site
						{
							OFFSET 0.000000 0.000000 0.000000
						}
					}
				}
			}
		}
	}
	JOINT RHipJoint
	{
		OFFSET 0.000000 0.000000 0.000000
		CHANNELS 3 Zrotation Yrotation Xrotation
		JOINT RightUpLeg
		{
			OFFSET -1.305520 -1.794630 0.839290
			CHANNELS 3 Zrotation Yrotation Xrotation
			JOINT RightLeg
			{
				OFFSET -2.542530 -6.985550 0.000000
				CHANNELS 3 Zrotation Yrotation Xrotation
				JOINT RightFoot
				{
					OFFSET -2.568260 -7.056230 0.000000
					CHANNELS 3 Zrotation Yrotation Xrotation
					JOINT RightToeBase
					{
						OFFSET -0.164730 -0.452590 2.363150
						CHANNELS 3 Zrotation Yrotation Xrotation
						End Site
						{
							OFFSET 0.000000 0.000000 0.000000
						}
					}
				}
			}
		}
	}
}
MOTION
Frames: 24
Frame Time: 0.008333
-1.777170 16.703384 1.742229 171.865040 -82.136658 -148.183515 -8.834379 0.866426 5.988513 -13.073221 -6.475448 -53.619284 -2.891322 0.554820 27.106588 0.560432 0.635890 -7.626886 0.159100 0.000000 -29.495900 10.775650 -5.777692 2.402231 4.087235 -4.434645 -0.130111 0.665815 -1.444862 17.212844 -0.157218 13.808266 33.848696 9.041000 0.000000 -70.962900
-2.012266 16.620624 1.733033 170.513404 -82.300669 -147.251087 -8.870209 0.849776 5.813024 -13.426082 -6.481538 -54.126365 -2.631780 0.929654 30.852101 0.559376 0.560103 -7.938395 0.121100 0.000000 -27.146700 10.933808 -5.832723 2.256414 3.458297 -5.639037 -0.228268 0.574986 -1.527548 19.112266 -0.245658 14.418107 34.305447 9.560700 0.000000 -69.572500
-2.243991 16.543513 1.724210 168.889465 -82.434473 -146.056459 -8.880057 0.823012 5.645574 -13.811676 -6.522422 -54.363472 -2.388894 1.226620 34.296058 0.595426 0.619690 -8.546703 0.072300 -0.000000 -24.762200 11.118994 -5.863165 2.091228 2.737558 -6.886497 -0.486511 0.469589 -1.613947 21.253877 -0.359078 14.626227 34.739532 9.829500 0.000000 -68.093400
-2.472371 16.473877 1.716109 167.115540 -82.514115 -144.711013 -8.861593 0.797281 5.491067 -14.235663 -6.587295 -54.328728 -2.180132 1.447348 37.347837 0.668819 0.818865 -9.456444 0.007900 -0.000000 -22.597100 11.327435 -5.863563 1.915751 1.941066 -8.117832 -0.909240 0.350607 -1.702856 23.615786 -0.498460 14.310150 35.133497 9.757300 0.000000 -66.602300
-2.697541 16.413230 1.709029 165.322387 -82.517891 -143.339086 -8.814857 0.781750 5.350589 -14.701960 -6.664110 -54.029792 -2.015191 1.599410 39.957965 0.779092 1.155563 -10.648993 -0.081500 0.000000 -20.806600 11.553333 -5.828603 1.738820 1.086913 -9.275931 -1.488683 0.220420 -1.793518 26.165710 -0.663660 13.382248 35.448438 9.272800 -0.000001 -65.143500
-2.919580 16.362740 1.703872 163.783523 -82.424667 -142.209050 -8.753737 0.780566 5.223229 -15.186108 -6.724119 -53.497842 -1.895442 1.695036 42.115841 0.923645 1.613446 -12.083788 -0.207200 -0.000000 -19.457300 11.773928 -5.754998 1.572414 0.228640 -10.280274 -2.203512 0.082080 -1.884968 28.853558 -0.853246 11.782772 35.632240 8.323499 -0.000000 -63.754800
-3.138762 16.323155 1.701090 162.623775 -82.227614 -141.444337 -8.687082 0.793841 5.106108 -15.674299 -6.754592 -52.750803 -1.817896 1.743445 43.821151 1.099466 2.179564 -13.693277 -0.379301 0.000000 -18.550200 11.976652 -5.643199 1.423268 -0.603890 -11.085804 -3.031281 -0.059886 -1.978314 31.632508 -1.065208 9.538567 35.608032 6.920000 -0.000000 -62.406200
-3.355200 16.294893 1.701200 161.946499 -81.929284 -141.149603 -8.627300 0.818068 4.995859 -16.141807 -6.741851 -51.813561 -1.775547 1.753291 45.090530 1.300672 2.833653 -15.392358 -0.602900 0.000000 -18.047000 12.146984 -5.498066 1.296906 -1.372207 -11.655470 -3.948015 -0.201002 -2.075713 34.453371 -1.295908 6.743155 35.297314 5.130600 0.000000 -61.056100
-3.569115 16.278049 1.704792 161.812942 -81.541872 -141.384857 -8.587891 0.848362 4.889980 -16.557119 -6.674722 -50.716365 -1.759204 1.732300 45.953158 1.518100 3.549357 -17.086632 -0.875000 -0.000000 -17.883001 12.272013 -5.328866 1.197108 -2.035154 -11.967740 -4.934246 -0.337930 -2.179595 37.269240 -1.539593 3.554097 34.635415 3.082300 -0.000000 -59.653800
-3.780735 16.272343 1.711791 162.134205 -81.084341 -142.060532 -8.571056 0.882263 4.787004 -16.909994 -6.559210 -49.479827 -1.760280 1.685556 46.438540 1.741421 4.303815 -18.679998 -1.184500 -0.000000 -17.966700 12.354291 -5.145675 1.123305 -2.582808 -12.036934 -5.978739 -0.468545 -2.292750 40.041713 -1.788266 0.188269 33.584206 0.953600 0.000000 -58.161800
-3.990332 16.277259 1.722121 162.835620 -80.578772 -143.096963 -8.579980 0.918432 4.686985 -17.186299 -6.399533 -48.132697 -1.770871 1.618573 46.585563 1.958415 5.067539 -20.090391 -1.512400 -0.000001 -18.195400 12.395373 -4.958992 1.074390 -3.000381 -11.885235 -7.074131 -0.592747 -2.415893 42.733272 -2.032145 -3.135232 32.147592 -1.073400 -0.000000 -56.570800
-4.197993 16.292046 1.735438 163.811531 -80.050332 -144.384623 -8.613361 0.957234 4.590920 -17.382475 -6.205127 -46.701412 -1.785117 1.536162 46.434587 2.157388 5.810653 -21.255635 -1.835200 -0.000001 -18.468100 12.401407 -4.777040 1.047361 -3.285200 -11.550946 -8.217147 -0.711202 -2.547924 45.310982 -2.260605 -6.218911 30.365306 -2.840399 -0.000000 -54.877200
-4.403954 16.315819 1.751255 164.971766 -79.525064 -145.825760 -8.668813 0.999991 4.500413 -17.498969 -5.984350 -45.213103 -1.799457 1.442735 46.026571 2.328415 6.502641 -22.140383 -2.129300 -0.000000 -18.703900 12.378516 -4.605526 1.039202 -3.436911 -11.076688 -9.404959 -0.824445 -2.685140 47.742057 -2.463834 -8.917205 28.309916 -4.242100 0.000000 -53.135000
-4.608288 16.347594 1.768949 166.228663 -79.029635 -147.327477 -8.741761 1.048333 4.416858 -17.543405 -5.746036 -43.689318 -1.812526 1.341765 45.399059 2.464747 7.116789 -22.735673 -2.374600 -0.000000 -18.852700 12.333780 -4.447041 1.045907 -3.462668 -10.510506 -10.633634 -0.931781 -2.822762 49.997179 -2.633219 -11.138536 26.068808 -5.230900 0.000000 -51.393300
-4.811101 16.386301 1.787852 167.511418 -78.589859 -148.814873 -8.827007 1.103618 4.341055 -17.527341 -5.497121 -42.146810 -1.824861 1.235780 44.584222 2.563080 7.631069 -23.057236 -2.558000 0.000000 -18.899700 12.273514 -4.301927 1.062404 -3.374641 -9.901892 -11.897152 -1.031113 -2.956174 52.052265 -2.761346 -12.838875 23.722607 -5.808299 0.000000 -49.619700
-5.012300 16.430976 1.807392 168.775564 -78.227320 -150.244501 -8.920559 1.166475 4.272639 -17.461412 -5.239337 -40.597104 -1.838106 1.126649 43.609118 2.623228 8.030217 -23.139417 -2.674101 0.000000 -18.857600 12.201538 -4.168360 1.084467 -3.183926 -9.290801 -13.184380 -1.119438 -3.080118 53.880987 -2.844733 -14.024406 21.366941 -6.024100 -0.000000 -47.928200
-5.212064 16.480604 1.827031 169.988073 -77.959190 -151.583891 -9.018306 1.237281 4.210438 -17.358176 -4.973272 -39.044489 -1.854527 1.015258 42.494677 2.647481 8.306129 -23.027233 -2.725400 -0.000000 -18.759800 12.121431 -4.044003 1.106534 -2.906993 -8.716110 -14.483007 -1.193159 -3.191455 55.466980 -2.881125 -14.722821 19.065750 -5.944100 -0.000000 -46.246000
-5.410384 16.534318 1.846443 171.133111 -77.794979 -152.822838 -9.117421 1.315764 4.152184 -17.227687 -4.695834 -37.489072 -1.876276 0.902150 41.257140 2.639547 8.457895 -22.767319 -2.719100 0.000000 -18.652300 12.035160 -3.925417 1.124127 -2.559414 -8.204070 -15.777628 -1.249174 -3.287353 56.795224 -2.872810 -14.992915 16.888562 -5.652700 -0.000001 -44.663600
-5.607324 16.591237 1.865409 172.203852 -77.738787 -153.963175 -9.215962 1.401100 4.095164 -17.077232 -4.403262 -35.927652 -1.904814 0.787674 39.910244 2.603512 8.489900 -22.400292 -2.665100 0.000000 -18.590800 11.944058 -3.809318 1.132636 -2.156127 -7.774224 -17.053538 -1.285235 -3.366704 57.859574 -2.824395 -14.905078 14.879028 -5.228801 0.000000 -43.153299
-5.802972 16.650648 1.883918 173.208800 -77.787363 -155.021746 -9.313409 1.492333 4.036528 -16.910447 -4.090569 -34.356811 -1.940483 0.672361 38.466748 2.542980 8.410273 -21.953751 -2.572200 -0.000001 -18.637201 11.848583 -3.692569 1.128731 -1.709703 -7.435287 -18.297263 -1.300444 -3.428980 58.659879 -2.743677 -14.542724 13.070038 -4.743500 0.000000 -41.741700
-5.997596 16.711824 1.902032 174.161766 -77.932887 -156.018776 -9.409902 1.588517 3.974691 -16.728284 -3.755261 -32.776609 -1.982315 0.557037 36.940717 2.460796 8.229505 -21.439584 -2.447200 0.000000 -18.853400 11.749175 -3.572682 1.111003 -1.230452 -7.187306 -19.500837 -1.295277 -3.474448 59.204697 -2.640342 -13.992928 11.475516 -4.252099 0.000000 -40.450100
-6.191450 16.774130 1.919925 175.083907 -78.164616 -156.980056 -9.506458 1.688758 3.909060 -16.528522 -3.397045 -31.191566 -2.028097 0.443187 35.349783 2.358757 7.958406 -20.854501 -2.294200 0.000000 -19.297400 11.645980 -3.447915 1.079576 -0.725446 -7.022991 -20.660705 -1.271274 -3.503934 59.509271 -2.524712 -13.339654 10.088987 -3.791600 -0.000001 -39.292501
-6.384842 16.837037 1.937804 176.007325 -78.470804 -157.940122 -9.605059 1.792182 3.840021 -16.304531 -3.018903 -29.611180 -2.074449 0.333139 33.715954 2.237762 7.607592 -20.182039 -2.114800 -0.000000 -20.023100 11.538581 -3.317301 1.035590 -0.196945 -6.929244 -21.776397 -1.230552 -3.518526 59.593116 -2.406495 -12.657418 8.887017 -3.383100 -0.000001 -38.286099
-6.578156 16.900045 1.955679 176.951569 -78.840373 -158.915070 -9.706272 1.898621 3.771406 -16.053689 -2.632967 -28.052684 -2.117516 0.229369 32.064573 2.099111 7.189554 -19.399063 -1.910600 -0.000000 -21.049000 11.427857 -3.180834 0.983342 0.350761 -6.889944 -22.857976 -1.175239 -3.519782 59.480570 -2.293588 -12.004228 7.830038 -3.033399 -0.000000 -37.447600
